<svg xmlns="http://www.w3.org/2000/svg" viewBox="0 0 1500 800" width="1500" height="800" font-family="Segoe UI, Arial, sans-serif">
<defs>
<marker id="ma" viewBox="0 0 10 10" refX="9" refY="5" markerWidth="7" markerHeight="7" orient="auto"><path d="M 0 0 L 10 5 L 0 10 z" fill="#33475b"/></marker>
<marker id="mb" viewBox="0 0 10 10" refX="9" refY="5" markerWidth="7" markerHeight="7" orient="auto"><path d="M 0 0 L 10 5 L 0 10 z" fill="#1f4e79"/></marker>
<marker id="mg" viewBox="0 0 10 10" refX="9" refY="5" markerWidth="7" markerHeight="7" orient="auto"><path d="M 0 0 L 10 5 L 0 10 z" fill="#2e7d32"/></marker>
<marker id="mo" viewBox="0 0 10 10" refX="9" refY="5" markerWidth="7" markerHeight="7" orient="auto"><path d="M 0 0 L 10 5 L 0 10 z" fill="#e65100"/></marker>
<marker id="mp" viewBox="0 0 10 10" refX="9" refY="5" markerWidth="7" markerHeight="7" orient="auto"><path d="M 0 0 L 10 5 L 0 10 z" fill="#6a1b9a"/></marker>
<marker id="mt" viewBox="0 0 10 10" refX="9" refY="5" markerWidth="7" markerHeight="7" orient="auto"><path d="M 0 0 L 10 5 L 0 10 z" fill="#00796b"/></marker>
<marker id="mr" viewBox="0 0 10 10" refX="9" refY="5" markerWidth="7" markerHeight="7" orient="auto"><path d="M 0 0 L 10 5 L 0 10 z" fill="#c62828"/></marker>
</defs><rect x="0" y="0" width="1500" height="800" fill="#ffffff"/>
<text x="750.0" y="44" font-size="26" font-weight="700" fill="#16212b" text-anchor="middle">Лестница диагностики: от симптома к причине</text>
<text x="750.0" y="78" font-size="14" fill="#556677" text-anchor="middle">Идём по слоям до первого расхождения</text>
<rect x="100" y="620" width="380" height="110" rx="10" fill="#eef4fb" stroke="#c3d4e8" stroke-width="2"/>
<text x="290" y="665" font-size="17" fill="#1f4e79" font-weight="700" text-anchor="middle">1. UE и радио</text>
<text x="290" y="698" font-size="12.5" fill="#556677" font-weight="normal" text-anchor="middle">RRC reject cause, RSRP/SINR, состояния UE</text>
<path d="M 290 730 L 590 610" fill="none" stroke="#546e7a" stroke-width="2.4" stroke-dasharray="7 6" marker-end="url(#ma)" stroke-linecap="round"/>
<rect x="400" y="480" width="380" height="110" rx="10" fill="#f0f7f5" stroke="#c8e0da" stroke-width="2"/>
<text x="590" y="525" font-size="17" fill="#00796b" font-weight="700" text-anchor="middle">2. Транспорт</text>
<text x="590" y="558" font-size="12.5" fill="#556677" font-weight="normal" text-anchor="middle">GTP-U потери, MTU, DSCP, ретрансмиссии</text>
<path d="M 590 590 L 890 470" fill="none" stroke="#546e7a" stroke-width="2.4" stroke-dasharray="7 6" marker-end="url(#ma)" stroke-linecap="round"/>
<rect x="700" y="340" width="380" height="110" rx="10" fill="#eaf7ee" stroke="#c3e8cf" stroke-width="2"/>
<text x="890" y="385" font-size="17" fill="#2e7d32" font-weight="700" text-anchor="middle">3. Core</text>
<text x="890" y="418" font-size="12.5" fill="#556677" font-weight="normal" text-anchor="middle">S1AP cause, S6a Result-Code, S11/S5 Cause</text>
<path d="M 890 450 L 1190 330" fill="none" stroke="#546e7a" stroke-width="2.4" stroke-dasharray="7 6" marker-end="url(#ma)" stroke-linecap="round"/>
<rect x="1000" y="200" width="380" height="110" rx="10" fill="#fdf4e8" stroke="#e8d4b8" stroke-width="2"/>
<text x="1190" y="245" font-size="17" fill="#b26a00" font-weight="700" text-anchor="middle">4. Сервис</text>
<text x="1190" y="278" font-size="12.5" fill="#556677" font-weight="normal" text-anchor="middle">IMS/SIP-коды, APN/DNN, политики</text>
<path d="M 1190 310 L 1490 190" fill="none" stroke="#546e7a" stroke-width="2.4" stroke-dasharray="7 6" marker-end="url(#ma)" stroke-linecap="round"/>
<text x="750" y="750" font-size="14" fill="#556677" font-weight="normal" text-anchor="middle">Первое расхождение — точка отказа; дальше — одна гипотеза и минимальный тест</text>
</svg>