<svg xmlns="http://www.w3.org/2000/svg" viewBox="0 0 1500 760" width="1500" height="760" font-family="Segoe UI, Arial, sans-serif">
<defs>
<marker id="ma" viewBox="0 0 10 10" refX="9" refY="5" markerWidth="7" markerHeight="7" orient="auto"><path d="M 0 0 L 10 5 L 0 10 z" fill="#33475b"/></marker>
<marker id="mb" viewBox="0 0 10 10" refX="9" refY="5" markerWidth="7" markerHeight="7" orient="auto"><path d="M 0 0 L 10 5 L 0 10 z" fill="#1f4e79"/></marker>
<marker id="mg" viewBox="0 0 10 10" refX="9" refY="5" markerWidth="7" markerHeight="7" orient="auto"><path d="M 0 0 L 10 5 L 0 10 z" fill="#2e7d32"/></marker>
<marker id="mo" viewBox="0 0 10 10" refX="9" refY="5" markerWidth="7" markerHeight="7" orient="auto"><path d="M 0 0 L 10 5 L 0 10 z" fill="#e65100"/></marker>
<marker id="mp" viewBox="0 0 10 10" refX="9" refY="5" markerWidth="7" markerHeight="7" orient="auto"><path d="M 0 0 L 10 5 L 0 10 z" fill="#6a1b9a"/></marker>
<marker id="mt" viewBox="0 0 10 10" refX="9" refY="5" markerWidth="7" markerHeight="7" orient="auto"><path d="M 0 0 L 10 5 L 0 10 z" fill="#00796b"/></marker>
</defs><rect x="0" y="0" width="1500" height="760" fill="#ffffff"/>
<text x="750.0" y="44" font-size="26" font-weight="700" fill="#16212b" text-anchor="middle">Paging и TA-списки: баланс сигнализации</text>
<text x="750.0" y="78" font-size="14" fill="#556677" text-anchor="middle">Большой TA list — меньше TAU, но больше paging-нагрузки</text>
<rect x="120" y="300" width="200" height="80" rx="10" fill="#eef4fb" stroke="#c3d4e8" stroke-width="2"/>
<text x="220" y="337" font-size="17" fill="#1f4e79" font-weight="700" text-anchor="middle">UE (idle)</text>
<text x="220" y="362" font-size="12.5" fill="#556677" font-weight="normal" text-anchor="middle">DRX / eDRX</text>
<rect x="560" y="300" width="240" height="80" rx="10" fill="#fdf4e8" stroke="#e8d4b8" stroke-width="2"/>
<text x="680" y="337" font-size="17" fill="#b26a00" font-weight="700" text-anchor="middle">MME / AMF</text>
<text x="680" y="362" font-size="12.5" fill="#556677" font-weight="normal" text-anchor="middle">TAI list, повторы</text>
<rect x="1020" y="260" width="300" height="90" rx="10" fill="#eaf7ee" stroke="#c3e8cf" stroke-width="2"/>
<text x="1170" y="300" font-size="17" fill="#2e7d32" font-weight="700" text-anchor="middle">Соты TA list</text>
<text x="1170" y="330" font-size="12.5" fill="#556677" font-weight="normal" text-anchor="middle">paging во все соты списка</text>
<rect x="120" y="520" width="220" height="80" rx="10" fill="#f7f9fc" stroke="#c9d4e0" stroke-width="2"/>
<text x="230" y="557" font-size="16" fill="#33475b" font-weight="700" text-anchor="middle">DL-данные</text>
<text x="230" y="582" font-size="12.5" fill="#556677" font-weight="normal" text-anchor="middle">пришли на MME</text>
<path d="M 340 520 L 620 380" fill="none" stroke="#33475b" stroke-width="2.4" marker-end="url(#ma)" stroke-linecap="round"/>
<text x="500" y="445" font-size="13" fill="#33475b" font-weight="700" text-anchor="middle">S11</text>
<path d="M 800 340 L 1020 305" fill="none" stroke="#2e7d32" stroke-width="2.4" marker-end="url(#mg)" stroke-linecap="round"/>
<text x="910" y="310" font-size="13" fill="#2e7d32" font-weight="700" text-anchor="middle">Paging</text>
<path d="M 1020 350 L 320 350" fill="none" stroke="#1f4e79" stroke-width="2" stroke-dasharray="7 6" marker-end="url(#mb)" stroke-linecap="round"/>
<text x="670" y="338" font-size="13" fill="#1f4e79" font-weight="700" text-anchor="middle">S1AP/NGAP Paging → UE отвечает</text>
<text x="750" y="650" font-size="14" fill="#556677" font-weight="normal" text-anchor="middle">Рычаги: размер TA list · DRX (32–256 кадров) · число повторов · eDRX для IoT</text>
<text x="750" y="690" font-size="14" fill="#b71c1c" font-weight="700" text-anchor="middle">Симптомы: Paging SR ↓, paging storm, синхронные periodic TAU (T3412)</text>
</svg>