<svg xmlns="http://www.w3.org/2000/svg" viewBox="0 0 1500 760" width="1500" height="760" font-family="Segoe UI, Arial, sans-serif">
<defs>
<marker id="ma" viewBox="0 0 10 10" refX="9" refY="5" markerWidth="7" markerHeight="7" orient="auto"><path d="M 0 0 L 10 5 L 0 10 z" fill="#33475b"/></marker>
<marker id="mb" viewBox="0 0 10 10" refX="9" refY="5" markerWidth="7" markerHeight="7" orient="auto"><path d="M 0 0 L 10 5 L 0 10 z" fill="#1f4e79"/></marker>
<marker id="mg" viewBox="0 0 10 10" refX="9" refY="5" markerWidth="7" markerHeight="7" orient="auto"><path d="M 0 0 L 10 5 L 0 10 z" fill="#2e7d32"/></marker>
<marker id="mo" viewBox="0 0 10 10" refX="9" refY="5" markerWidth="7" markerHeight="7" orient="auto"><path d="M 0 0 L 10 5 L 0 10 z" fill="#e65100"/></marker>
<marker id="mp" viewBox="0 0 10 10" refX="9" refY="5" markerWidth="7" markerHeight="7" orient="auto"><path d="M 0 0 L 10 5 L 0 10 z" fill="#6a1b9a"/></marker>
<marker id="mt" viewBox="0 0 10 10" refX="9" refY="5" markerWidth="7" markerHeight="7" orient="auto"><path d="M 0 0 L 10 5 L 0 10 z" fill="#00796b"/></marker>
</defs><rect x="0" y="0" width="1500" height="760" fill="#ffffff"/>
<text x="750.0" y="44" font-size="26" font-weight="700" fill="#16212b" text-anchor="middle">Туннели GTP-U: как идут данные</text>
<text x="750.0" y="78" font-size="14" fill="#556677" text-anchor="middle">Один туннель на bearer; TEID — идентификатор туннеля на узле</text>
<rect x="120" y="280" width="160" height="80" rx="10" fill="#eef4fb" stroke="#c3d4e8" stroke-width="2"/>
<text x="200" y="315" font-size="18" fill="#1f4e79" font-weight="700" text-anchor="middle">UE</text>
<text x="200" y="342" font-size="12.5" fill="#556677" font-weight="normal" text-anchor="middle">IP-адрес абонента</text>
<rect x="480" y="280" width="170" height="80" rx="10" fill="#eef4fb" stroke="#c3d4e8" stroke-width="2"/>
<text x="565" y="315" font-size="18" fill="#1f4e79" font-weight="700" text-anchor="middle">eNB</text>
<rect x="850" y="280" width="170" height="80" rx="10" fill="#eaf7ee" stroke="#c3e8cf" stroke-width="2"/>
<text x="935" y="315" font-size="18" fill="#2e7d32" font-weight="700" text-anchor="middle">SGW</text>
<rect x="1220" y="280" width="170" height="80" rx="10" fill="#eef4fb" stroke="#c3d4e8" stroke-width="2"/>
<text x="1305" y="315" font-size="18" fill="#1f4e79" font-weight="700" text-anchor="middle">PGW</text>
<path d="M 280 320 L 480 320" fill="none" stroke="#33475b" stroke-width="2.4" marker-end="url(#ma)" stroke-linecap="round"/>
<text x="380" y="308" font-size="13" fill="#33475b" font-weight="700" text-anchor="middle">Uu: радио</text>
<path d="M 650 320 L 850 320" fill="none" stroke="#2e7d32" stroke-width="2.4" marker-end="url(#mg)" stroke-linecap="round"/>
<text x="750" y="308" font-size="13" fill="#2e7d32" font-weight="700" text-anchor="middle">S1-U: GTP-U</text>
<path d="M 1020 320 L 1220 320" fill="none" stroke="#2e7d32" stroke-width="2.4" marker-end="url(#mg)" stroke-linecap="round"/>
<text x="1120" y="308" font-size="13" fill="#2e7d32" font-weight="700" text-anchor="middle">S5/S8: GTP-U</text>
<text x="750" y="372" font-size="12.5" fill="#556677" font-weight="normal" text-anchor="middle">TEID eNB↔SGW</text>
<text x="1120" y="372" font-size="12.5" fill="#556677" font-weight="normal" text-anchor="middle">TEID SGW↔PGW</text>
<rect x="200" y="480" width="1100" height="70" rx="10" fill="#f7f9fc" stroke="#c9d4e0" stroke-width="2"/>
<text x="750" y="522" font-size="15" fill="#33475b" font-weight="700" text-anchor="middle">Внешний IP · UDP:2152 · GTP-U · TEID · Внутренний IP-пакет абонента</text>
<text x="750" y="610" font-size="13" fill="#556677" font-weight="normal" text-anchor="middle">Один туннель на bearer (4G) или поток/сессию (5G); TEID назначается принимающим узлом</text>
<text x="750" y="650" font-size="13" fill="#556677" font-weight="normal" text-anchor="middle">Данные 5G идут по N3 (GTP-U) между gNB и UPF</text>
</svg>